{"title":"Rocky 5 (1990) 720p BD-Rip Dual Audio (hindi-Eng)~Abhinav4u~{HKR","uid":7958862,"size":814175022,"categoryP":"video","categoryS":"hd___movies","magnet":"?xt=urn:btih:1ba36ba2c3014545c36efc0e636af44eb1019e23&amp;dn=Rocky+5+%281990%29+720p+BD-Rip+Dual+Audio+%28hindi-Eng%29%7EAbhinav4u%7E%7BHKR&amp;tr=udp%3A%2F%2Ftracker.openbittorrent.com%3A80&amp;tr=udp%3A%2F%2Fopen.demonii.com%3A1337&amp;tr=udp%3A%2F%2Ftracker.coppersurfer.tk%3A6969&amp;tr=udp%3A%2F%2Fexodus.desync.com%3A6969","seeders":4,"leechers":2,"uploader":"Abhinav4u","files":3,"time":1356480078,"description":"Group:- HKRG\nUploader:-Abhinav4u\n\nFormat : Matroska\nFormat version : Version 2\nFile size : 772 MiB\nDuration : 1h 37mn\nOverall bit rate mode : Variable\nOverall bit rate : 1 105 Kbps\nMovie name : Rocky 5 (1990) 720p Dual Audio (Hindi-Eng)~Abhinav4u~{HKRG}\n\nVideo Info:-\nFormat/Info : Advanced Video Codec\nFormat profile : &lt;a class=&quot;__cf_email__&quot; href=&quot;/cdn-cgi/l/email-protection&quot; data-cfemail=&quot;571f3e303f171b637967&quot;&gt;[email&amp;#160;protected]&lt;/a&gt;&lt;script cf-hash='f9e31' type=&quot;text/javascript&quot;&gt;\n/* &lt;![CDATA[ */!function(){try{var t=&quot;currentScript&quot;in document?document.currentScript:function(){for(var t=document.getElementsByTagName(&quot;script&quot;),e=t.length;e--;)if(t[e].getAttribute(&quot;cf-hash&quot;))return t[e]}();if(t&amp;&amp;t.previousSibling){var e,r,n,i,c=t.previousSibling,a=c.getAttribute(&quot;data-cfemail&quot;);if(a){for(e=&quot;&quot;,r=parseInt(a.substr(0,2),16),n=2;a.length-n;n+=2)i=parseInt(a.substr(n,2),16)^r,e+=String.fromCharCode(i);e=document.createTextNode(e),c.parentNode.replaceChild(e,c)}}}catch(u){}}();/* ]]&gt; */&lt;/script&gt;\nWidth : 1 280 pixels\nHeight : 720 pixels\nDisplay aspect ratio : 16:9\nFrame rate mode : Constant\nFrame rate : 23.976 fps\nStream size : 578 MiB (75%)\nTitle : Ripper::Abhinav4u~\n\nAudio #1:-\nFormat/Info : Audio Coding 3\nMode extension : CM (complete main)\nBit rate : 128 Kbps\nChannel(s) : 2 channels\nSampling rate : 48.0 KHz\nStream size : 89.4 MiB (12%)\nTitle : ~Abhinav4u~\n\nAudio #2:-\nFormat/Info : Audio Coding 3\nMode extension : CM (complete main)\nBit rate : 128 Kbps\nChannel(s) : 6 channels\nChannel positions : Front: L C R, Side: L R, LFE\nSampling rate : 48.0 KHz\nStream size : 89.4 MiB (12%)\nTitle : ~Abhinav4u~\nLanguage : English\n\nSample Included in The Rip..\nhindi Audio Credit:- Kunal Patelc(V.K)[Thanks]\nEnjoy the Movie.. ","torrent":{"xt":"urn:btih:1ba36ba2c3014545c36efc0e636af44eb1019e23","amp;dn":"Rocky+5+%281990%29+720p+BD-Rip+Dual+Audio+%28hindi-Eng%29%7EAbhinav4u%7E%7BHKR","amp;tr":["udp%3A%2F%2Ftracker.openbittorrent.com%3A80","udp%3A%2F%2Fopen.demonii.com%3A1337","udp%3A%2F%2Ftracker.coppersurfer.tk%3A6969","udp%3A%2F%2Fexodus.desync.com%3A6969"],"infoHash":"1ba36ba2c3014545c36efc0e636af44eb1019e23","infoHashBuffer":{"type":"Buffer","data":[27,163,107,162,195,1,69,69,195,110,252,14,99,106,244,78,177,1,158,35]},"announce":[],"urlList":[]}}